<?xml version="1.0" encoding="UTF-8" standalone="no"?>
<!DOCTYPE svg PUBLIC "-//W3C//DTD SVG 1.1//EN"
 "http://www.w3.org/Graphics/SVG/1.1/DTD/svg11.dtd">
<!-- Generated by graphviz version 2.47.0 (20210316.0004)
 -->
<!-- Title: dependencies Pages: 1 -->
<svg width="504pt" height="211pt"
 viewBox="0.00 0.00 504.00 211.00" xmlns="http://www.w3.org/2000/svg" xmlns:xlink="http://www.w3.org/1999/xlink">
<g id="graph0" class="graph" transform="scale(1 1) rotate(0) translate(4 207)">
<title>dependencies</title>
<polygon fill="white" stroke="transparent" points="-4,4 -4,-207 500,-207 500,4 -4,4"/>
<text text-anchor="start" x="227.01" y="-42.4" font-family="Times-12" font-weight="bold" font-size="14.00">Legend</text>
<polygon fill="#ffffb3" stroke="transparent" points="14,-10 14,-30 34,-30 34,-10 14,-10"/>
<text text-anchor="start" x="37.63" y="-15.4" font-family="Times-12" font-size="14.00"> &#160;Declarations</text>
<polygon fill="#8dd3c7" stroke="transparent" points="127,-10 127,-30 147,-30 147,-10 127,-10"/>
<text text-anchor="start" x="150.73" y="-15.4" font-family="Times-12" font-size="14.00"> &#160;Module</text>
<polygon fill="#80b1d3" stroke="transparent" points="213,-10 213,-30 233,-30 233,-10 213,-10"/>
<text text-anchor="start" x="236.78" y="-15.4" font-family="Times-12" font-size="14.00"> &#160;Bootstrap</text>
<polygon fill="#fdb462" stroke="transparent" points="310,-10 310,-30 330,-30 330,-10 310,-10"/>
<text text-anchor="start" x="333.67" y="-15.4" font-family="Times-12" font-size="14.00"> &#160;Providers</text>
<polygon fill="#fb8072" stroke="transparent" points="406,-10 406,-30 426,-30 426,-10 406,-10"/>
<text text-anchor="start" x="429.73" y="-15.4" font-family="Times-12" font-size="14.00"> &#160;Exports</text>
<g id="clust1" class="cluster">
<title>cluster_CoursesModule</title>
<polygon fill="none" stroke="black" stroke-dasharray="1,5" points="49,-70 49,-195 447,-195 447,-70 49,-70"/>
</g>
<g id="clust6" class="cluster">
<title>cluster_CoursesModule_providers</title>
<polygon fill="none" stroke="black" points="57,-78 57,-130 439,-130 439,-78 57,-78"/>
</g>
<!-- CoursesService -->
<g id="node1" class="node">
<title>CoursesService</title>
<ellipse fill="#fdb462" stroke="black" cx="360" cy="-104" rx="71.2" ry="18"/>
<text text-anchor="middle" x="360" y="-99.8" font-family="Times,serif" font-size="14.00">CoursesService</text>
</g>
<!-- CoursesModule -->
<g id="node3" class="node">
<title>CoursesModule</title>
<polygon fill="#8dd3c7" stroke="black" points="316.15,-187 313.15,-191 292.15,-191 289.15,-187 211.85,-187 211.85,-151 316.15,-151 316.15,-187"/>
<text text-anchor="middle" x="264" y="-164.8" font-family="Times,serif" font-size="14.00">CoursesModule</text>
</g>
<!-- CoursesService&#45;&gt;CoursesModule -->
<g id="edge1" class="edge">
<title>CoursesService&#45;&gt;CoursesModule</title>
<path fill="none" stroke="black" d="M302.61,-114.73C302.61,-114.73 302.61,-140.87 302.61,-140.87"/>
<polygon fill="black" stroke="black" points="299.11,-140.87 302.61,-150.87 306.11,-140.87 299.11,-140.87"/>
</g>
<!-- TokenUserMiddleWare -->
<g id="node2" class="node">
<title>TokenUserMiddleWare</title>
<ellipse fill="#fdb462" stroke="black" cx="168" cy="-104" rx="102.97" ry="18"/>
<text text-anchor="middle" x="168" y="-99.8" font-family="Times,serif" font-size="14.00">TokenUserMiddleWare</text>
</g>
<!-- TokenUserMiddleWare&#45;&gt;CoursesModule -->
<g id="edge2" class="edge">
<title>TokenUserMiddleWare&#45;&gt;CoursesModule</title>
<path fill="none" stroke="black" d="M241.2,-116.84C241.2,-116.84 241.2,-140.52 241.2,-140.52"/>
<polygon fill="black" stroke="black" points="237.7,-140.52 241.2,-150.52 244.7,-140.52 237.7,-140.52"/>
</g>
</g>
</svg>
