<?xml version="1.0" encoding="UTF-8" standalone="no"?>
<!DOCTYPE svg PUBLIC "-//W3C//DTD SVG 1.1//EN"
 "http://www.w3.org/Graphics/SVG/1.1/DTD/svg11.dtd">
<!-- Generated by graphviz version 2.47.0 (20210316.0004)
 -->
<!-- Title: dependencies Pages: 1 -->
<svg width="647pt" height="211pt"
 viewBox="0.00 0.00 647.00 211.00" xmlns="http://www.w3.org/2000/svg" xmlns:xlink="http://www.w3.org/1999/xlink">
<g id="graph0" class="graph" transform="scale(1 1) rotate(0) translate(4 207)">
<title>dependencies</title>
<polygon fill="white" stroke="transparent" points="-4,4 -4,-207 643,-207 643,4 -4,4"/>
<text text-anchor="start" x="298.51" y="-42.4" font-family="Times-12" font-weight="bold" font-size="14.00">Legend</text>
<polygon fill="#ffffb3" stroke="transparent" points="85.5,-10 85.5,-30 105.5,-30 105.5,-10 85.5,-10"/>
<text text-anchor="start" x="109.13" y="-15.4" font-family="Times-12" font-size="14.00"> &#160;Declarations</text>
<polygon fill="#8dd3c7" stroke="transparent" points="198.5,-10 198.5,-30 218.5,-30 218.5,-10 198.5,-10"/>
<text text-anchor="start" x="222.23" y="-15.4" font-family="Times-12" font-size="14.00"> &#160;Module</text>
<polygon fill="#80b1d3" stroke="transparent" points="284.5,-10 284.5,-30 304.5,-30 304.5,-10 284.5,-10"/>
<text text-anchor="start" x="308.28" y="-15.4" font-family="Times-12" font-size="14.00"> &#160;Bootstrap</text>
<polygon fill="#fdb462" stroke="transparent" points="381.5,-10 381.5,-30 401.5,-30 401.5,-10 381.5,-10"/>
<text text-anchor="start" x="405.17" y="-15.4" font-family="Times-12" font-size="14.00"> &#160;Providers</text>
<polygon fill="#fb8072" stroke="transparent" points="477.5,-10 477.5,-30 497.5,-30 497.5,-10 477.5,-10"/>
<text text-anchor="start" x="501.23" y="-15.4" font-family="Times-12" font-size="14.00"> &#160;Exports</text>
<g id="clust1" class="cluster">
<title>cluster_VedioModule</title>
<polygon fill="none" stroke="black" stroke-dasharray="1,5" points="8,-70 8,-195 631,-195 631,-70 8,-70"/>
</g>
<g id="clust6" class="cluster">
<title>cluster_VedioModule_providers</title>
<polygon fill="none" stroke="black" points="16,-78 16,-130 623,-130 623,-78 16,-78"/>
</g>
<!-- TokenAdminMiddleWare -->
<g id="node1" class="node">
<title>TokenAdminMiddleWare</title>
<ellipse fill="#fdb462" stroke="black" cx="504" cy="-104" rx="111.16" ry="18"/>
<text text-anchor="middle" x="504" y="-99.8" font-family="Times,serif" font-size="14.00">TokenAdminMiddleWare</text>
</g>
<!-- VedioModule -->
<g id="node4" class="node">
<title>VedioModule</title>
<polygon fill="#8dd3c7" stroke="black" points="318.76,-187 315.76,-191 294.76,-191 291.76,-187 225.24,-187 225.24,-151 318.76,-151 318.76,-187"/>
<text text-anchor="middle" x="272" y="-164.8" font-family="Times,serif" font-size="14.00">VedioModule</text>
</g>
<!-- TokenAdminMiddleWare&#45;&gt;VedioModule -->
<g id="edge1" class="edge">
<title>TokenAdminMiddleWare&#45;&gt;VedioModule</title>
<path fill="none" stroke="black" d="M504,-122.11C504,-141.34 504,-169 504,-169 504,-169 328.95,-169 328.95,-169"/>
<polygon fill="black" stroke="black" points="328.95,-165.5 318.95,-169 328.95,-172.5 328.95,-165.5"/>
</g>
<!-- TokenUserMiddleWare -->
<g id="node2" class="node">
<title>TokenUserMiddleWare</title>
<ellipse fill="#fdb462" stroke="black" cx="272" cy="-104" rx="102.97" ry="18"/>
<text text-anchor="middle" x="272" y="-99.8" font-family="Times,serif" font-size="14.00">TokenUserMiddleWare</text>
</g>
<!-- TokenUserMiddleWare&#45;&gt;VedioModule -->
<g id="edge2" class="edge">
<title>TokenUserMiddleWare&#45;&gt;VedioModule</title>
<path fill="none" stroke="black" d="M272,-122.11C272,-122.11 272,-140.99 272,-140.99"/>
<polygon fill="black" stroke="black" points="268.5,-140.99 272,-150.99 275.5,-140.99 268.5,-140.99"/>
</g>
<!-- VedioService -->
<g id="node3" class="node">
<title>VedioService</title>
<ellipse fill="#fdb462" stroke="black" cx="88" cy="-104" rx="63.68" ry="18"/>
<text text-anchor="middle" x="88" y="-99.8" font-family="Times,serif" font-size="14.00">VedioService</text>
</g>
<!-- VedioService&#45;&gt;VedioModule -->
<g id="edge3" class="edge">
<title>VedioService&#45;&gt;VedioModule</title>
<path fill="none" stroke="black" d="M88,-122.11C88,-141.34 88,-169 88,-169 88,-169 215.09,-169 215.09,-169"/>
<polygon fill="black" stroke="black" points="215.09,-172.5 225.09,-169 215.09,-165.5 215.09,-172.5"/>
</g>
</g>
</svg>
