<?xml version="1.0" encoding="UTF-8" standalone="no"?>
<!DOCTYPE svg PUBLIC "-//W3C//DTD SVG 1.1//EN"
 "http://www.w3.org/Graphics/SVG/1.1/DTD/svg11.dtd">
<!-- Generated by graphviz version 2.47.0 (20210316.0004)
 -->
<!-- Title: dependencies Pages: 1 -->
<svg width="883pt" height="211pt"
 viewBox="0.00 0.00 883.00 211.00" xmlns="http://www.w3.org/2000/svg" xmlns:xlink="http://www.w3.org/1999/xlink">
<g id="graph0" class="graph" transform="scale(1 1) rotate(0) translate(4 207)">
<title>dependencies</title>
<polygon fill="white" stroke="transparent" points="-4,4 -4,-207 879,-207 879,4 -4,4"/>
<text text-anchor="start" x="416.51" y="-42.4" font-family="Times-12" font-weight="bold" font-size="14.00">Legend</text>
<polygon fill="#ffffb3" stroke="transparent" points="203.5,-10 203.5,-30 223.5,-30 223.5,-10 203.5,-10"/>
<text text-anchor="start" x="227.13" y="-15.4" font-family="Times-12" font-size="14.00"> &#160;Declarations</text>
<polygon fill="#8dd3c7" stroke="transparent" points="316.5,-10 316.5,-30 336.5,-30 336.5,-10 316.5,-10"/>
<text text-anchor="start" x="340.23" y="-15.4" font-family="Times-12" font-size="14.00"> &#160;Module</text>
<polygon fill="#80b1d3" stroke="transparent" points="402.5,-10 402.5,-30 422.5,-30 422.5,-10 402.5,-10"/>
<text text-anchor="start" x="426.28" y="-15.4" font-family="Times-12" font-size="14.00"> &#160;Bootstrap</text>
<polygon fill="#fdb462" stroke="transparent" points="499.5,-10 499.5,-30 519.5,-30 519.5,-10 499.5,-10"/>
<text text-anchor="start" x="523.17" y="-15.4" font-family="Times-12" font-size="14.00"> &#160;Providers</text>
<polygon fill="#fb8072" stroke="transparent" points="595.5,-10 595.5,-30 615.5,-30 615.5,-10 595.5,-10"/>
<text text-anchor="start" x="619.23" y="-15.4" font-family="Times-12" font-size="14.00"> &#160;Exports</text>
<g id="clust1" class="cluster">
<title>cluster_AppModule</title>
<polygon fill="none" stroke="black" stroke-dasharray="1,5" points="8,-70 8,-195 867,-195 867,-70 8,-70"/>
</g>
<g id="clust3" class="cluster">
<title>cluster_AppModule_imports</title>
<polygon fill="none" stroke="black" points="16,-78 16,-130 859,-130 859,-78 16,-78"/>
</g>
<!-- CoursesModule -->
<g id="node1" class="node">
<title>CoursesModule</title>
<polygon fill="#8dd3c7" stroke="black" points="851.15,-122 848.15,-126 827.15,-126 824.15,-122 746.85,-122 746.85,-86 851.15,-86 851.15,-122"/>
<text text-anchor="middle" x="799" y="-99.8" font-family="Times,serif" font-size="14.00">CoursesModule</text>
</g>
<!-- AppModule -->
<g id="node8" class="node">
<title>AppModule</title>
<polygon fill="#8dd3c7" stroke="black" points="492.66,-187 489.66,-191 468.66,-191 465.66,-187 409.34,-187 409.34,-151 492.66,-151 492.66,-187"/>
<text text-anchor="middle" x="451" y="-164.8" font-family="Times,serif" font-size="14.00">AppModule</text>
</g>
<!-- CoursesModule&#45;&gt;AppModule -->
<g id="edge1" class="edge">
<title>CoursesModule&#45;&gt;AppModule</title>
<path fill="none" stroke="black" d="M799,-122.29C799,-144.21 799,-178 799,-178 799,-178 502.98,-178 502.98,-178"/>
<polygon fill="black" stroke="black" points="502.98,-174.5 492.98,-178 502.98,-181.5 502.98,-174.5"/>
</g>
<!-- DiscountModule -->
<g id="node2" class="node">
<title>DiscountModule</title>
<polygon fill="#8dd3c7" stroke="black" points="729.1,-122 726.1,-126 705.1,-126 702.1,-122 618.9,-122 618.9,-86 729.1,-86 729.1,-122"/>
<text text-anchor="middle" x="674" y="-99.8" font-family="Times,serif" font-size="14.00">DiscountModule</text>
</g>
<!-- DiscountModule&#45;&gt;AppModule -->
<g id="edge2" class="edge">
<title>DiscountModule&#45;&gt;AppModule</title>
<path fill="none" stroke="black" d="M674,-122.11C674,-141.34 674,-169 674,-169 674,-169 502.68,-169 502.68,-169"/>
<polygon fill="black" stroke="black" points="502.68,-165.5 492.68,-169 502.68,-172.5 502.68,-165.5"/>
</g>
<!-- TakeModule -->
<g id="node3" class="node">
<title>TakeModule</title>
<polygon fill="#8dd3c7" stroke="black" points="600.53,-122 597.53,-126 576.53,-126 573.53,-122 513.47,-122 513.47,-86 600.53,-86 600.53,-122"/>
<text text-anchor="middle" x="557" y="-99.8" font-family="Times,serif" font-size="14.00">TakeModule</text>
</g>
<!-- TakeModule&#45;&gt;AppModule -->
<g id="edge3" class="edge">
<title>TakeModule&#45;&gt;AppModule</title>
<path fill="none" stroke="black" d="M557,-122.03C557,-138.4 557,-160 557,-160 557,-160 502.89,-160 502.89,-160"/>
<polygon fill="black" stroke="black" points="502.89,-156.5 492.89,-160 502.89,-163.5 502.89,-156.5"/>
</g>
<!-- TestsModule -->
<g id="node4" class="node">
<title>TestsModule</title>
<polygon fill="#8dd3c7" stroke="black" points="495.6,-122 492.6,-126 471.6,-126 468.6,-122 406.4,-122 406.4,-86 495.6,-86 495.6,-122"/>
<text text-anchor="middle" x="451" y="-99.8" font-family="Times,serif" font-size="14.00">TestsModule</text>
</g>
<!-- TestsModule&#45;&gt;AppModule -->
<g id="edge4" class="edge">
<title>TestsModule&#45;&gt;AppModule</title>
<path fill="none" stroke="black" d="M451,-122.11C451,-122.11 451,-140.99 451,-140.99"/>
<polygon fill="black" stroke="black" points="447.5,-140.99 451,-150.99 454.5,-140.99 447.5,-140.99"/>
</g>
<!-- UsersDiscountModule -->
<g id="node5" class="node">
<title>UsersDiscountModule</title>
<polygon fill="#8dd3c7" stroke="black" points="387.97,-122 384.97,-126 363.97,-126 360.97,-122 246.03,-122 246.03,-86 387.97,-86 387.97,-122"/>
<text text-anchor="middle" x="317" y="-99.8" font-family="Times,serif" font-size="14.00">UsersDiscountModule</text>
</g>
<!-- UsersDiscountModule&#45;&gt;AppModule -->
<g id="edge5" class="edge">
<title>UsersDiscountModule&#45;&gt;AppModule</title>
<path fill="none" stroke="black" d="M317,-122.03C317,-138.4 317,-160 317,-160 317,-160 399.34,-160 399.34,-160"/>
<polygon fill="black" stroke="black" points="399.34,-163.5 409.34,-160 399.34,-156.5 399.34,-163.5"/>
</g>
<!-- UsersModule -->
<g id="node6" class="node">
<title>UsersModule</title>
<polygon fill="#8dd3c7" stroke="black" points="227.92,-122 224.92,-126 203.92,-126 200.92,-122 136.08,-122 136.08,-86 227.92,-86 227.92,-122"/>
<text text-anchor="middle" x="182" y="-99.8" font-family="Times,serif" font-size="14.00">UsersModule</text>
</g>
<!-- UsersModule&#45;&gt;AppModule -->
<g id="edge6" class="edge">
<title>UsersModule&#45;&gt;AppModule</title>
<path fill="none" stroke="black" d="M182,-122.11C182,-141.34 182,-169 182,-169 182,-169 399.26,-169 399.26,-169"/>
<polygon fill="black" stroke="black" points="399.26,-172.5 409.26,-169 399.26,-165.5 399.26,-172.5"/>
</g>
<!-- VedioModule -->
<g id="node7" class="node">
<title>VedioModule</title>
<polygon fill="#8dd3c7" stroke="black" points="117.76,-122 114.76,-126 93.76,-126 90.76,-122 24.24,-122 24.24,-86 117.76,-86 117.76,-122"/>
<text text-anchor="middle" x="71" y="-99.8" font-family="Times,serif" font-size="14.00">VedioModule</text>
</g>
<!-- VedioModule&#45;&gt;AppModule -->
<g id="edge7" class="edge">
<title>VedioModule&#45;&gt;AppModule</title>
<path fill="none" stroke="black" d="M71,-122.29C71,-144.21 71,-178 71,-178 71,-178 399.25,-178 399.25,-178"/>
<polygon fill="black" stroke="black" points="399.25,-181.5 409.25,-178 399.25,-174.5 399.25,-181.5"/>
</g>
</g>
</svg>
