<?xml version="1.0" encoding="UTF-8" standalone="no"?>
<!DOCTYPE svg PUBLIC "-//W3C//DTD SVG 1.1//EN"
 "http://www.w3.org/Graphics/SVG/1.1/DTD/svg11.dtd">
<!-- Generated by graphviz version 2.47.0 (20210316.0004)
 -->
<!-- Title: dependencies Pages: 1 -->
<svg width="1736pt" height="287pt"
 viewBox="0.00 0.00 1736.00 287.00" xmlns="http://www.w3.org/2000/svg" xmlns:xlink="http://www.w3.org/1999/xlink">
<g id="graph0" class="graph" transform="scale(1 1) rotate(0) translate(4 283)">
<title>dependencies</title>
<polygon fill="white" stroke="transparent" points="-4,4 -4,-283 1732,-283 1732,4 -4,4"/>
<text text-anchor="start" x="843.01" y="-42.4" font-family="Times-12" font-weight="bold" font-size="14.00">Legend</text>
<polygon fill="#ffffb3" stroke="transparent" points="630,-10 630,-30 650,-30 650,-10 630,-10"/>
<text text-anchor="start" x="653.63" y="-15.4" font-family="Times-12" font-size="14.00"> &#160;Declarations</text>
<polygon fill="#8dd3c7" stroke="transparent" points="743,-10 743,-30 763,-30 763,-10 743,-10"/>
<text text-anchor="start" x="766.73" y="-15.4" font-family="Times-12" font-size="14.00"> &#160;Module</text>
<polygon fill="#80b1d3" stroke="transparent" points="829,-10 829,-30 849,-30 849,-10 829,-10"/>
<text text-anchor="start" x="852.78" y="-15.4" font-family="Times-12" font-size="14.00"> &#160;Bootstrap</text>
<polygon fill="#fdb462" stroke="transparent" points="926,-10 926,-30 946,-30 946,-10 926,-10"/>
<text text-anchor="start" x="949.67" y="-15.4" font-family="Times-12" font-size="14.00"> &#160;Providers</text>
<polygon fill="#fb8072" stroke="transparent" points="1022,-10 1022,-30 1042,-30 1042,-10 1022,-10"/>
<text text-anchor="start" x="1045.73" y="-15.4" font-family="Times-12" font-size="14.00"> &#160;Exports</text>
<g id="clust1" class="cluster">
<title>cluster_AppModule</title>
<polygon fill="none" stroke="black" stroke-dasharray="1,5" points="395,-146 395,-271 1254,-271 1254,-146 395,-146"/>
</g>
<g id="clust3" class="cluster">
<title>cluster_AppModule_imports</title>
<polygon fill="none" stroke="black" points="403,-154 403,-206 1246,-206 1246,-154 403,-154"/>
</g>
<g id="clust7" class="cluster">
<title>cluster_CoursesModule</title>
<polygon fill="none" stroke="black" stroke-dasharray="1,5" points="8,-70 8,-138 406,-138 406,-70 8,-70"/>
</g>
<g id="clust12" class="cluster">
<title>cluster_CoursesModule_providers</title>
<polygon fill="none" stroke="black" points="16,-78 16,-130 398,-130 398,-78 16,-78"/>
</g>
<g id="clust13" class="cluster">
<title>cluster_DiscountModule</title>
<polygon fill="none" stroke="black" stroke-dasharray="1,5" points="414,-70 414,-138 596,-138 596,-70 414,-70"/>
</g>
<g id="clust18" class="cluster">
<title>cluster_DiscountModule_providers</title>
<polygon fill="none" stroke="black" points="422,-78 422,-130 588,-130 588,-78 422,-78"/>
</g>
<g id="clust19" class="cluster">
<title>cluster_TakeModule</title>
<polygon fill="none" stroke="black" stroke-dasharray="1,5" points="604,-70 604,-138 754,-138 754,-70 604,-70"/>
</g>
<g id="clust24" class="cluster">
<title>cluster_TakeModule_providers</title>
<polygon fill="none" stroke="black" points="612,-78 612,-130 746,-130 746,-78 612,-78"/>
</g>
<g id="clust25" class="cluster">
<title>cluster_TestsModule</title>
<polygon fill="none" stroke="black" stroke-dasharray="1,5" points="762,-70 762,-138 914,-138 914,-70 762,-70"/>
</g>
<g id="clust30" class="cluster">
<title>cluster_TestsModule_providers</title>
<polygon fill="none" stroke="black" points="770,-78 770,-130 906,-130 906,-78 770,-78"/>
</g>
<g id="clust31" class="cluster">
<title>cluster_UsersDiscountModule</title>
<polygon fill="none" stroke="black" stroke-dasharray="1,5" points="922,-70 922,-138 1148,-138 1148,-70 922,-70"/>
</g>
<g id="clust36" class="cluster">
<title>cluster_UsersDiscountModule_providers</title>
<polygon fill="none" stroke="black" points="930,-78 930,-130 1140,-130 1140,-78 930,-78"/>
</g>
<g id="clust37" class="cluster">
<title>cluster_UsersModule</title>
<polygon fill="none" stroke="black" stroke-dasharray="1,5" points="1156,-70 1156,-138 1312,-138 1312,-70 1156,-70"/>
</g>
<g id="clust42" class="cluster">
<title>cluster_UsersModule_providers</title>
<polygon fill="none" stroke="black" points="1164,-78 1164,-130 1304,-130 1304,-78 1164,-78"/>
</g>
<g id="clust43" class="cluster">
<title>cluster_VedioModule</title>
<polygon fill="none" stroke="black" stroke-dasharray="1,5" points="1320,-70 1320,-138 1720,-138 1720,-70 1320,-70"/>
</g>
<g id="clust48" class="cluster">
<title>cluster_VedioModule_providers</title>
<polygon fill="none" stroke="black" points="1328,-78 1328,-130 1712,-130 1712,-78 1328,-78"/>
</g>
<!-- CoursesModule -->
<g id="node1" class="node">
<title>CoursesModule</title>
<polygon fill="#8dd3c7" stroke="black" points="515.15,-198 512.15,-202 491.15,-202 488.15,-198 410.85,-198 410.85,-162 515.15,-162 515.15,-198"/>
<text text-anchor="middle" x="463" y="-175.8" font-family="Times,serif" font-size="14.00">CoursesModule</text>
</g>
<!-- AppModule -->
<g id="node8" class="node">
<title>AppModule</title>
<polygon fill="#8dd3c7" stroke="black" points="852.66,-263 849.66,-267 828.66,-267 825.66,-263 769.34,-263 769.34,-227 852.66,-227 852.66,-263"/>
<text text-anchor="middle" x="811" y="-240.8" font-family="Times,serif" font-size="14.00">AppModule</text>
</g>
<!-- CoursesModule&#45;&gt;AppModule -->
<g id="edge1" class="edge">
<title>CoursesModule&#45;&gt;AppModule</title>
<path fill="none" stroke="black" d="M463,-198.29C463,-220.21 463,-254 463,-254 463,-254 759.02,-254 759.02,-254"/>
<polygon fill="black" stroke="black" points="759.02,-257.5 769.02,-254 759.02,-250.5 759.02,-257.5"/>
</g>
<!-- DiscountModule -->
<g id="node2" class="node">
<title>DiscountModule</title>
<polygon fill="#8dd3c7" stroke="black" points="643.1,-198 640.1,-202 619.1,-202 616.1,-198 532.9,-198 532.9,-162 643.1,-162 643.1,-198"/>
<text text-anchor="middle" x="588" y="-175.8" font-family="Times,serif" font-size="14.00">DiscountModule</text>
</g>
<!-- DiscountModule&#45;&gt;AppModule -->
<g id="edge2" class="edge">
<title>DiscountModule&#45;&gt;AppModule</title>
<path fill="none" stroke="black" d="M588,-198.11C588,-217.34 588,-245 588,-245 588,-245 759.32,-245 759.32,-245"/>
<polygon fill="black" stroke="black" points="759.32,-248.5 769.32,-245 759.32,-241.5 759.32,-248.5"/>
</g>
<!-- TakeModule -->
<g id="node3" class="node">
<title>TakeModule</title>
<polygon fill="#8dd3c7" stroke="black" points="748.53,-198 745.53,-202 724.53,-202 721.53,-198 661.47,-198 661.47,-162 748.53,-162 748.53,-198"/>
<text text-anchor="middle" x="705" y="-175.8" font-family="Times,serif" font-size="14.00">TakeModule</text>
</g>
<!-- TakeModule&#45;&gt;AppModule -->
<g id="edge3" class="edge">
<title>TakeModule&#45;&gt;AppModule</title>
<path fill="none" stroke="black" d="M705,-198.03C705,-214.4 705,-236 705,-236 705,-236 759.11,-236 759.11,-236"/>
<polygon fill="black" stroke="black" points="759.11,-239.5 769.11,-236 759.11,-232.5 759.11,-239.5"/>
</g>
<!-- TestsModule -->
<g id="node4" class="node">
<title>TestsModule</title>
<polygon fill="#8dd3c7" stroke="black" points="855.6,-198 852.6,-202 831.6,-202 828.6,-198 766.4,-198 766.4,-162 855.6,-162 855.6,-198"/>
<text text-anchor="middle" x="811" y="-175.8" font-family="Times,serif" font-size="14.00">TestsModule</text>
</g>
<!-- TestsModule&#45;&gt;AppModule -->
<g id="edge4" class="edge">
<title>TestsModule&#45;&gt;AppModule</title>
<path fill="none" stroke="black" d="M811,-198.11C811,-198.11 811,-216.99 811,-216.99"/>
<polygon fill="black" stroke="black" points="807.5,-216.99 811,-226.99 814.5,-216.99 807.5,-216.99"/>
</g>
<!-- UsersDiscountModule -->
<g id="node5" class="node">
<title>UsersDiscountModule</title>
<polygon fill="#8dd3c7" stroke="black" points="1015.97,-198 1012.97,-202 991.97,-202 988.97,-198 874.03,-198 874.03,-162 1015.97,-162 1015.97,-198"/>
<text text-anchor="middle" x="945" y="-175.8" font-family="Times,serif" font-size="14.00">UsersDiscountModule</text>
</g>
<!-- UsersDiscountModule&#45;&gt;AppModule -->
<g id="edge5" class="edge">
<title>UsersDiscountModule&#45;&gt;AppModule</title>
<path fill="none" stroke="black" d="M945,-198.03C945,-214.4 945,-236 945,-236 945,-236 862.66,-236 862.66,-236"/>
<polygon fill="black" stroke="black" points="862.66,-232.5 852.66,-236 862.66,-239.5 862.66,-232.5"/>
</g>
<!-- UsersModule -->
<g id="node6" class="node">
<title>UsersModule</title>
<polygon fill="#8dd3c7" stroke="black" points="1125.92,-198 1122.92,-202 1101.92,-202 1098.92,-198 1034.08,-198 1034.08,-162 1125.92,-162 1125.92,-198"/>
<text text-anchor="middle" x="1080" y="-175.8" font-family="Times,serif" font-size="14.00">UsersModule</text>
</g>
<!-- UsersModule&#45;&gt;AppModule -->
<g id="edge6" class="edge">
<title>UsersModule&#45;&gt;AppModule</title>
<path fill="none" stroke="black" d="M1080,-198.11C1080,-217.34 1080,-245 1080,-245 1080,-245 862.74,-245 862.74,-245"/>
<polygon fill="black" stroke="black" points="862.74,-241.5 852.74,-245 862.74,-248.5 862.74,-241.5"/>
</g>
<!-- VedioModule -->
<g id="node7" class="node">
<title>VedioModule</title>
<polygon fill="#8dd3c7" stroke="black" points="1237.76,-198 1234.76,-202 1213.76,-202 1210.76,-198 1144.24,-198 1144.24,-162 1237.76,-162 1237.76,-198"/>
<text text-anchor="middle" x="1191" y="-175.8" font-family="Times,serif" font-size="14.00">VedioModule</text>
</g>
<!-- VedioModule&#45;&gt;AppModule -->
<g id="edge7" class="edge">
<title>VedioModule&#45;&gt;AppModule</title>
<path fill="none" stroke="black" d="M1191,-198.29C1191,-220.21 1191,-254 1191,-254 1191,-254 862.75,-254 862.75,-254"/>
<polygon fill="black" stroke="black" points="862.75,-250.5 852.75,-254 862.75,-257.5 862.75,-250.5"/>
</g>
<!-- CoursesService -->
<g id="node9" class="node">
<title>CoursesService</title>
<ellipse fill="#fdb462" stroke="black" cx="95" cy="-104" rx="71.2" ry="18"/>
<text text-anchor="middle" x="95" y="-99.8" font-family="Times,serif" font-size="14.00">CoursesService</text>
</g>
<!-- CoursesService&#45;&gt;CoursesModule -->
<g id="edge8" class="edge">
<title>CoursesService&#45;&gt;CoursesModule</title>
<path fill="none" stroke="black" d="M95,-122.01C95,-144.49 95,-180 95,-180 95,-180 400.67,-180 400.67,-180"/>
<polygon fill="black" stroke="black" points="400.67,-183.5 410.67,-180 400.67,-176.5 400.67,-183.5"/>
</g>
<!-- TokenUserMiddleWare -->
<g id="node10" class="node">
<title>TokenUserMiddleWare</title>
<ellipse fill="#fdb462" stroke="black" cx="287" cy="-104" rx="102.97" ry="18"/>
<text text-anchor="middle" x="287" y="-99.8" font-family="Times,serif" font-size="14.00">TokenUserMiddleWare</text>
</g>
<!-- TokenUserMiddleWare&#45;&gt;CoursesModule -->
<g id="edge9" class="edge">
<title>TokenUserMiddleWare&#45;&gt;CoursesModule</title>
<path fill="none" stroke="black" d="M389.8,-104C407.54,-104 420.41,-104 420.41,-104 420.41,-104 420.41,-151.99 420.41,-151.99"/>
<polygon fill="black" stroke="black" points="416.91,-151.99 420.41,-161.99 423.91,-151.99 416.91,-151.99"/>
</g>
<!-- TokenUserMiddleWare&#45;&gt;VedioModule -->
<g id="edge16" class="edge">
<title>TokenUserMiddleWare&#45;&gt;VedioModule</title>
<path fill="none" stroke="black" d="M287,-122.11C287,-131.9 287,-142 287,-142 287,-142 1158.07,-142 1158.07,-142 1158.07,-142 1158.07,-151.89 1158.07,-151.89"/>
<polygon fill="black" stroke="black" points="1154.57,-151.89 1158.07,-161.89 1161.57,-151.89 1154.57,-151.89"/>
</g>
<!-- DiscountService -->
<g id="node11" class="node">
<title>DiscountService</title>
<ellipse fill="#fdb462" stroke="black" cx="505" cy="-104" rx="74.72" ry="18"/>
<text text-anchor="middle" x="505" y="-99.8" font-family="Times,serif" font-size="14.00">DiscountService</text>
</g>
<!-- DiscountService&#45;&gt;DiscountModule -->
<g id="edge10" class="edge">
<title>DiscountService&#45;&gt;DiscountModule</title>
<path fill="none" stroke="black" d="M556.4,-117.24C556.4,-117.24 556.4,-151.79 556.4,-151.79"/>
<polygon fill="black" stroke="black" points="552.91,-151.79 556.4,-161.79 559.91,-151.79 552.91,-151.79"/>
</g>
<!-- TakeServise -->
<g id="node12" class="node">
<title>TakeServise</title>
<ellipse fill="#fdb462" stroke="black" cx="679" cy="-104" rx="58.53" ry="18"/>
<text text-anchor="middle" x="679" y="-99.8" font-family="Times,serif" font-size="14.00">TakeServise</text>
</g>
<!-- TakeServise&#45;&gt;TakeModule -->
<g id="edge11" class="edge">
<title>TakeServise&#45;&gt;TakeModule</title>
<path fill="none" stroke="black" d="M699.5,-121.25C699.5,-121.25 699.5,-151.76 699.5,-151.76"/>
<polygon fill="black" stroke="black" points="696,-151.76 699.5,-161.76 703,-151.76 696,-151.76"/>
</g>
<!-- TestsService -->
<g id="node13" class="node">
<title>TestsService</title>
<ellipse fill="#fdb462" stroke="black" cx="838" cy="-104" rx="60.25" ry="18"/>
<text text-anchor="middle" x="838" y="-99.8" font-family="Times,serif" font-size="14.00">TestsService</text>
</g>
<!-- TestsService&#45;&gt;TestsModule -->
<g id="edge12" class="edge">
<title>TestsService&#45;&gt;TestsModule</title>
<path fill="none" stroke="black" d="M816.59,-120.87C816.59,-120.87 816.59,-151.85 816.59,-151.85"/>
<polygon fill="black" stroke="black" points="813.09,-151.85 816.59,-161.85 820.09,-151.85 813.09,-151.85"/>
</g>
<!-- UsersDiscountService -->
<g id="node14" class="node">
<title>UsersDiscountService</title>
<ellipse fill="#fdb462" stroke="black" cx="1035" cy="-104" rx="96.68" ry="18"/>
<text text-anchor="middle" x="1035" y="-99.8" font-family="Times,serif" font-size="14.00">UsersDiscountService</text>
</g>
<!-- UsersDiscountService&#45;&gt;UsersDiscountModule -->
<g id="edge13" class="edge">
<title>UsersDiscountService&#45;&gt;UsersDiscountModule</title>
<path fill="none" stroke="black" d="M977.07,-118.65C977.07,-118.65 977.07,-151.9 977.07,-151.9"/>
<polygon fill="black" stroke="black" points="973.57,-151.9 977.07,-161.9 980.57,-151.9 973.57,-151.9"/>
</g>
<!-- UsersService -->
<g id="node15" class="node">
<title>UsersService</title>
<ellipse fill="#fdb462" stroke="black" cx="1234" cy="-104" rx="61.95" ry="18"/>
<text text-anchor="middle" x="1234" y="-99.8" font-family="Times,serif" font-size="14.00">UsersService</text>
</g>
<!-- UsersService&#45;&gt;UsersModule -->
<g id="edge14" class="edge">
<title>UsersService&#45;&gt;UsersModule</title>
<path fill="none" stroke="black" d="M1171.83,-104C1153.37,-104 1137.98,-104 1137.98,-104 1137.98,-104 1137.98,-180 1137.98,-180 1137.98,-180 1135.97,-180 1135.97,-180"/>
<polygon fill="black" stroke="black" points="1135.97,-176.5 1125.97,-180 1135.97,-183.5 1135.97,-176.5"/>
</g>
<!-- TokenAdminMiddleWare -->
<g id="node16" class="node">
<title>TokenAdminMiddleWare</title>
<ellipse fill="#fdb462" stroke="black" cx="1593" cy="-104" rx="111.16" ry="18"/>
<text text-anchor="middle" x="1593" y="-99.8" font-family="Times,serif" font-size="14.00">TokenAdminMiddleWare</text>
</g>
<!-- TokenAdminMiddleWare&#45;&gt;VedioModule -->
<g id="edge15" class="edge">
<title>TokenAdminMiddleWare&#45;&gt;VedioModule</title>
<path fill="none" stroke="black" d="M1593,-122.2C1593,-146.36 1593,-186 1593,-186 1593,-186 1247.9,-186 1247.9,-186"/>
<polygon fill="black" stroke="black" points="1247.9,-182.5 1237.9,-186 1247.9,-189.5 1247.9,-182.5"/>
</g>
<!-- VedioService -->
<g id="node17" class="node">
<title>VedioService</title>
<ellipse fill="#fdb462" stroke="black" cx="1400" cy="-104" rx="63.68" ry="18"/>
<text text-anchor="middle" x="1400" y="-99.8" font-family="Times,serif" font-size="14.00">VedioService</text>
</g>
<!-- VedioService&#45;&gt;VedioModule -->
<g id="edge17" class="edge">
<title>VedioService&#45;&gt;VedioModule</title>
<path fill="none" stroke="black" d="M1400,-122.03C1400,-142.77 1400,-174 1400,-174 1400,-174 1247.9,-174 1247.9,-174"/>
<polygon fill="black" stroke="black" points="1247.9,-170.5 1237.9,-174 1247.9,-177.5 1247.9,-170.5"/>
</g>
</g>
</svg>
